<svg width="213" height="120" viewBox="0 0 213 120" fill="none" xmlns="http://www.w3.org/2000/svg">
<path d="M27.616 44.864L34.72 61.856H32.68L27.136 47.144L27.616 44.864ZM22.456 60.248C22.344 60.568 22.328 60.84 22.408 61.064C22.488 61.288 22.616 61.464 22.792 61.592C22.984 61.704 23.176 61.76 23.368 61.76H23.584V62H18.76V61.76C18.76 61.76 18.8 61.76 18.88 61.76C18.944 61.76 18.976 61.76 18.976 61.76C19.344 61.76 19.72 61.648 20.104 61.424C20.504 61.184 20.832 60.792 21.088 60.248H22.456ZM27.616 44.864L27.832 46.544L21.808 61.928H20.368L26.512 47.336C26.512 47.336 26.552 47.24 26.632 47.048C26.728 46.84 26.832 46.592 26.944 46.304C27.072 46.016 27.176 45.736 27.256 45.464C27.352 45.192 27.4 44.992 27.4 44.864H27.616ZM31 55.448V56.168H23.488V55.448H31ZM32.08 60.248H34.048C34.288 60.792 34.608 61.184 35.008 61.424C35.408 61.648 35.792 61.76 36.16 61.76C36.16 61.76 36.192 61.76 36.256 61.76C36.32 61.76 36.352 61.76 36.352 61.76V62H30.952V61.76H31.168C31.472 61.76 31.744 61.632 31.984 61.376C32.224 61.104 32.256 60.728 32.08 60.248ZM38.6779 47.24L51.9739 59.768L52.2139 62.336L38.9179 49.736L38.6779 47.24ZM38.7259 60.512V62H36.9259V61.76C36.9259 61.76 36.9899 61.76 37.1179 61.76C37.2619 61.76 37.3339 61.76 37.3339 61.76C37.7019 61.76 38.0139 61.64 38.2699 61.4C38.5259 61.16 38.6539 60.864 38.6539 60.512H38.7259ZM39.7339 60.512C39.7339 60.864 39.8619 61.16 40.1179 61.4C40.3899 61.64 40.7019 61.76 41.0539 61.76C41.0539 61.76 41.1179 61.76 41.2459 61.76C41.3899 61.76 41.4619 61.76 41.4619 61.76V62H39.6619V60.512H39.7339ZM38.6779 47.24L39.7099 48.584L39.7339 62H38.6539V50.24C38.6539 49.424 38.6139 48.72 38.5339 48.128C38.4699 47.536 38.4379 47.24 38.4379 47.24H38.6779ZM52.2139 47.6V59.264C52.2139 59.776 52.2299 60.272 52.2619 60.752C52.2939 61.216 52.3259 61.6 52.3579 61.904C52.4059 62.192 52.4299 62.336 52.4299 62.336H52.2139L51.1579 61.064V47.6H52.2139ZM52.1419 49.088V47.6H53.9419V47.84C53.9419 47.84 53.8699 47.84 53.7259 47.84C53.5979 47.84 53.5339 47.84 53.5339 47.84C53.1819 47.84 52.8699 47.96 52.5979 48.2C52.3419 48.44 52.2139 48.736 52.2139 49.088H52.1419ZM51.1579 49.088C51.1419 48.736 51.0059 48.44 50.7499 48.2C50.4939 47.96 50.1819 47.84 49.8139 47.84C49.8139 47.84 49.7419 47.84 49.5979 47.84C49.4699 47.84 49.4059 47.84 49.4059 47.84V47.6H51.2059V49.088H51.1579ZM64.1251 47.6C65.7091 47.6 67.0771 47.888 68.2291 48.464C69.3811 49.04 70.2691 49.872 70.8931 50.96C71.5171 52.032 71.8291 53.312 71.8291 54.8C71.8291 56.288 71.5171 57.568 70.8931 58.64C70.2691 59.712 69.3811 60.544 68.2291 61.136C67.0771 61.712 65.7091 62 64.1251 62H59.0131L58.9651 61.28C60.0851 61.28 61.0211 61.28 61.7731 61.28C62.5411 61.28 63.1251 61.28 63.5251 61.28C63.9251 61.28 64.1251 61.28 64.1251 61.28C65.9811 61.28 67.4371 60.704 68.4931 59.552C69.5651 58.384 70.1011 56.8 70.1011 54.8C70.1011 52.8 69.5651 51.224 68.4931 50.072C67.4371 48.904 65.9811 48.32 64.1251 48.32C64.1251 48.32 63.9171 48.32 63.5011 48.32C63.0851 48.32 62.4771 48.32 61.6771 48.32C60.8771 48.32 59.8931 48.32 58.7251 48.32V47.6H64.1251ZM59.3491 47.6V62H57.7891V47.6H59.3491ZM57.8371 60.44V62H56.1091V61.76C56.1091 61.76 56.1571 61.76 56.2531 61.76C56.3651 61.76 56.4211 61.76 56.4211 61.76C56.8051 61.76 57.1251 61.632 57.3811 61.376C57.6371 61.104 57.7731 60.792 57.7891 60.44H57.8371ZM57.8371 49.16H57.7891C57.7731 48.776 57.6291 48.464 57.3571 48.224C57.1011 47.968 56.7811 47.84 56.3971 47.84C56.3971 47.84 56.3491 47.84 56.2531 47.84C56.1571 47.84 56.1091 47.84 56.1091 47.84V47.6H57.8371V49.16ZM76.9199 47.6H80.0159C80.7679 47.6 81.4399 47.688 82.0319 47.864C82.6399 48.04 83.1519 48.296 83.5679 48.632C83.9999 48.968 84.3279 49.376 84.5519 49.856C84.7759 50.336 84.8879 50.88 84.8879 51.488C84.8879 52.16 84.7279 52.784 84.4079 53.36C84.0879 53.936 83.6399 54.408 83.0639 54.776C82.5039 55.144 81.8639 55.368 81.1439 55.448C81.4159 55.56 81.7279 55.808 82.0799 56.192C82.4479 56.576 82.7599 56.952 83.0159 57.32C83.0159 57.32 83.1199 57.464 83.3279 57.752C83.5359 58.024 83.7999 58.368 84.1199 58.784C84.4559 59.184 84.7839 59.568 85.1039 59.936C85.4399 60.304 85.7439 60.624 86.0159 60.896C86.3039 61.168 86.6079 61.384 86.9279 61.544C87.2639 61.688 87.6479 61.76 88.0799 61.76V62H87.3359C86.4559 62 85.7279 61.888 85.1519 61.664C84.5919 61.44 84.1359 61.168 83.7839 60.848C83.4319 60.512 83.1279 60.192 82.8719 59.888C82.8079 59.808 82.6559 59.608 82.4159 59.288C82.1919 58.952 81.9439 58.592 81.6719 58.208C81.3999 57.824 81.1519 57.48 80.9279 57.176C80.7039 56.856 80.5679 56.664 80.5199 56.6C80.1999 56.184 79.8319 55.816 79.4159 55.496C78.9999 55.16 78.5599 54.992 78.0959 54.992V54.752C78.0959 54.752 78.2239 54.76 78.4799 54.776C78.7359 54.776 79.0639 54.768 79.4639 54.752C79.9119 54.736 80.3599 54.704 80.8079 54.656C81.2559 54.592 81.6719 54.416 82.0559 54.128C82.4559 53.84 82.7679 53.36 82.9919 52.688C83.0559 52.512 83.1039 52.304 83.1359 52.064C83.1679 51.824 83.1759 51.576 83.1599 51.32C83.1439 50.872 83.0559 50.472 82.8959 50.12C82.7519 49.768 82.5359 49.464 82.2479 49.208C81.9759 48.952 81.6479 48.752 81.2639 48.608C80.8799 48.464 80.4479 48.384 79.9679 48.368C79.2159 48.336 78.5599 48.328 77.9999 48.344C77.4399 48.36 77.1599 48.36 77.1599 48.344C77.1599 48.328 77.1359 48.264 77.0879 48.152C77.0559 48.024 77.0159 47.904 76.9679 47.792C76.9359 47.664 76.9199 47.6 76.9199 47.6ZM77.2079 47.6V62H75.6719V47.6H77.2079ZM75.7439 60.464L76.0319 62H73.9919V61.76C73.9919 61.76 74.0479 61.76 74.1599 61.76C74.2719 61.76 74.3279 61.76 74.3279 61.76C74.7119 61.76 75.0319 61.632 75.2879 61.376C75.5439 61.12 75.6799 60.816 75.6959 60.464H75.7439ZM75.7439 49.112H75.6959C75.6799 48.744 75.5439 48.44 75.2879 48.2C75.0319 47.96 74.7119 47.84 74.3279 47.84C74.3279 47.84 74.2719 47.84 74.1599 47.84C74.0479 47.84 73.9919 47.84 73.9919 47.84V47.6H76.0319L75.7439 49.112ZM77.1359 60.464H77.2079C77.2239 60.816 77.3599 61.12 77.6159 61.376C77.8719 61.632 78.1919 61.76 78.5759 61.76C78.5759 61.76 78.6239 61.76 78.7199 61.76C78.8319 61.76 78.8879 61.76 78.8879 61.76L78.9119 62H76.8479L77.1359 60.464ZM92.3028 47.6V62H90.7668V47.6H92.3028ZM98.7588 61.256L98.7108 62H92.2548V61.256H98.7588ZM97.6308 54.44V55.16H92.2548V54.44H97.6308ZM98.7348 47.6V48.344H92.2548V47.6H98.7348ZM100.103 58.568L98.7828 62H95.1348L95.9508 61.256C96.7508 61.256 97.3908 61.144 97.8708 60.92C98.3668 60.68 98.7668 60.36 99.0708 59.96C99.3748 59.544 99.6388 59.08 99.8628 58.568H100.103ZM97.6308 55.112V56.48H97.3668V56.168C97.3668 55.896 97.2868 55.664 97.1268 55.472C96.9668 55.264 96.7188 55.16 96.3828 55.16V55.112H97.6308ZM97.6308 53.12V54.488H96.3828V54.44C96.7188 54.44 96.9668 54.344 97.1268 54.152C97.2868 53.944 97.3668 53.704 97.3668 53.432V53.12H97.6308ZM98.7348 48.272V49.928H98.4708V49.568C98.4708 49.232 98.3588 48.944 98.1348 48.704C97.9268 48.464 97.6388 48.344 97.2708 48.344V48.272H98.7348ZM98.7348 47.216V47.84L95.9988 47.6C96.4948 47.6 97.0228 47.56 97.5828 47.48C98.1428 47.384 98.5268 47.296 98.7348 47.216ZM90.8148 60.464L91.1268 62H89.0388V61.76C89.0388 61.76 89.0948 61.76 89.2068 61.76C89.3188 61.76 89.3748 61.76 89.3748 61.76C89.7748 61.76 90.1028 61.632 90.3588 61.376C90.6148 61.12 90.7508 60.816 90.7668 60.464H90.8148ZM90.8148 49.112H90.7668C90.7508 48.744 90.6148 48.44 90.3588 48.2C90.1028 47.96 89.7748 47.84 89.3748 47.84C89.3748 47.84 89.3188 47.84 89.2068 47.84C89.0948 47.84 89.0388 47.84 89.0388 47.84V47.6H91.1268L90.8148 49.112ZM102.188 47.744H104.108L107.996 59.576L107.78 62.288L102.188 47.744ZM112.052 47.216L112.244 49.16L108.524 59.624C108.524 59.624 108.484 59.768 108.404 60.056C108.324 60.328 108.236 60.672 108.14 61.088C108.06 61.488 108.012 61.888 107.996 62.288H107.78L107.324 60.152L111.812 47.216H112.052ZM112.052 47.24L116.66 58.976L116.108 62.288L111.236 49.832L112.052 47.24ZM120.884 47.744L116.9 59.624C116.9 59.624 116.852 59.768 116.756 60.056C116.676 60.344 116.588 60.696 116.492 61.112C116.412 61.512 116.364 61.904 116.348 62.288H116.108L115.82 59.912L119.516 47.744H120.884ZM119.036 49.28C119.212 48.768 119.196 48.4 118.988 48.176C118.796 47.952 118.572 47.84 118.316 47.84H118.124V47.6H122.516V47.84C122.516 47.84 122.484 47.84 122.42 47.84C122.372 47.84 122.348 47.84 122.348 47.84C121.852 47.84 121.436 47.976 121.1 48.248C120.764 48.52 120.524 48.864 120.38 49.28H119.036ZM104.612 49.256L102.788 49.28C102.628 48.864 102.388 48.52 102.068 48.248C101.748 47.976 101.332 47.84 100.82 47.84C100.82 47.84 100.788 47.84 100.724 47.84C100.66 47.84 100.628 47.84 100.628 47.84V47.6H105.572V47.84H105.38C105.124 47.84 104.892 47.952 104.684 48.176C104.476 48.384 104.452 48.744 104.612 49.256ZM135.342 52.76L142.158 60.776C142.494 61.096 142.83 61.336 143.166 61.496C143.518 61.656 143.942 61.744 144.438 61.76V62H143.406C143.246 62 143.014 61.992 142.71 61.976C142.422 61.944 142.102 61.888 141.75 61.808C141.414 61.712 141.07 61.576 140.718 61.4C140.382 61.208 140.078 60.952 139.806 60.632C139.806 60.632 139.662 60.464 139.374 60.128C139.102 59.792 138.742 59.36 138.294 58.832C137.862 58.304 137.398 57.744 136.902 57.152C136.422 56.544 135.958 55.976 135.51 55.448C135.078 54.92 134.718 54.488 134.43 54.152C134.158 53.816 134.022 53.648 134.022 53.648L135.342 52.76ZM142.278 45.368L135.102 53.648H134.022L140.622 45.368H142.278ZM143.934 45.2V45.416H143.838C143.31 45.416 142.814 45.52 142.35 45.728C141.902 45.936 141.518 46.224 141.198 46.592L139.686 46.544C139.894 46.272 139.926 46.016 139.782 45.776C139.654 45.536 139.43 45.416 139.11 45.416H138.87V45.2H143.838H143.934ZM133.254 45.2V62H131.694V45.2H133.254ZM131.766 60.248V62H129.846V61.76C129.846 61.76 129.894 61.76 129.99 61.76C130.102 61.76 130.158 61.76 130.158 61.76C130.574 61.76 130.926 61.616 131.214 61.328C131.518 61.024 131.678 60.664 131.694 60.248H131.766ZM131.766 46.952H131.694C131.678 46.536 131.518 46.184 131.214 45.896C130.926 45.592 130.574 45.44 130.158 45.44C130.158 45.44 130.102 45.44 129.99 45.44C129.894 45.44 129.846 45.44 129.846 45.44V45.2H131.766V46.952ZM133.182 60.248H133.254C133.27 60.664 133.422 61.024 133.71 61.328C134.014 61.616 134.374 61.76 134.79 61.76C134.79 61.76 134.838 61.76 134.934 61.76C135.03 61.76 135.086 61.76 135.102 61.76V62H133.182V60.248ZM133.182 46.952V45.2H135.102V45.44C135.086 45.44 135.03 45.44 134.934 45.44C134.838 45.44 134.79 45.44 134.79 45.44C134.374 45.44 134.014 45.592 133.71 45.896C133.422 46.184 133.27 46.536 133.254 46.952H133.182ZM152.244 47.264L158.844 61.856H156.948L151.836 49.4L152.244 47.264ZM147.612 60.248C147.436 60.728 147.46 61.104 147.684 61.376C147.908 61.632 148.164 61.76 148.452 61.76H148.644V62H144.06V61.76C144.06 61.76 144.092 61.76 144.156 61.76C144.22 61.76 144.252 61.76 144.252 61.76C144.588 61.76 144.932 61.648 145.284 61.424C145.636 61.184 145.94 60.792 146.196 60.248H147.612ZM152.244 47.264L152.412 48.92L146.916 61.928H145.404L151.092 49.736C151.092 49.736 151.132 49.64 151.212 49.448C151.308 49.256 151.412 49.024 151.524 48.752C151.652 48.464 151.764 48.184 151.86 47.912C151.956 47.64 152.012 47.424 152.028 47.264H152.244ZM155.076 56.408V57.128H148.716V56.408H155.076ZM156.3 60.248H158.124C158.364 60.792 158.66 61.184 159.012 61.424C159.364 61.648 159.7 61.76 160.02 61.76C160.02 61.76 160.052 61.76 160.116 61.76C160.18 61.76 160.212 61.76 160.212 61.76V62H155.292V61.76H155.484C155.756 61.76 156.004 61.632 156.228 61.376C156.452 61.104 156.476 60.728 156.3 60.248ZM164.678 47.6V62H163.142V47.6H164.678ZM171.134 61.256L171.086 62H164.63V61.256H171.134ZM172.478 58.568L171.158 62H167.51L168.326 61.256C169.126 61.256 169.766 61.144 170.246 60.92C170.742 60.68 171.142 60.36 171.446 59.96C171.75 59.544 172.014 59.08 172.238 58.568H172.478ZM163.19 60.464L163.502 62H161.414V61.76C161.414 61.76 161.47 61.76 161.582 61.76C161.694 61.76 161.75 61.76 161.75 61.76C162.15 61.76 162.478 61.632 162.734 61.376C162.99 61.12 163.126 60.816 163.142 60.464H163.19ZM164.606 49.136V47.6H166.382V47.84C166.382 47.84 166.334 47.84 166.238 47.84C166.142 47.84 166.094 47.84 166.094 47.84C165.71 47.84 165.374 47.968 165.086 48.224C164.814 48.464 164.678 48.768 164.678 49.136H164.606ZM163.19 49.136H163.142C163.126 48.768 162.982 48.464 162.71 48.224C162.438 47.968 162.102 47.84 161.702 47.84C161.702 47.84 161.654 47.84 161.558 47.84C161.462 47.84 161.414 47.84 161.414 47.84V47.6H163.19V49.136ZM177.175 47.6V62H175.663V47.6H177.175ZM175.735 60.464V62H173.695V61.76C173.695 61.76 173.751 61.76 173.863 61.76C173.975 61.76 174.031 61.76 174.031 61.76C174.479 61.76 174.855 61.632 175.159 61.376C175.479 61.12 175.647 60.816 175.663 60.464H175.735ZM177.103 60.464H177.175C177.191 60.816 177.351 61.12 177.655 61.376C177.975 61.632 178.359 61.76 178.807 61.76C178.807 61.76 178.855 61.76 178.951 61.76C179.063 61.76 179.119 61.76 179.119 61.76L179.143 62H177.103V60.464ZM177.103 49.136V47.6H179.143L179.119 47.84C179.119 47.84 179.063 47.84 178.951 47.84C178.855 47.84 178.807 47.84 178.807 47.84C178.359 47.84 177.975 47.968 177.655 48.224C177.351 48.464 177.191 48.768 177.175 49.136H177.103ZM175.735 49.136H175.663C175.647 48.768 175.479 48.464 175.159 48.224C174.855 47.968 174.479 47.84 174.031 47.84C174.015 47.84 173.951 47.84 173.839 47.84C173.743 47.84 173.695 47.84 173.695 47.84V47.6H175.735V49.136ZM185.022 47.6V62H183.486V47.6H185.022ZM191.478 61.256L191.43 62H184.974V61.256H191.478ZM192.822 58.568L191.502 62H187.854L188.67 61.256C189.47 61.256 190.11 61.144 190.59 60.92C191.086 60.68 191.486 60.36 191.79 59.96C192.094 59.544 192.358 59.08 192.582 58.568H192.822ZM183.534 60.464L183.846 62H181.758V61.76C181.758 61.76 181.814 61.76 181.926 61.76C182.038 61.76 182.094 61.76 182.094 61.76C182.494 61.76 182.822 61.632 183.078 61.376C183.334 61.12 183.47 60.816 183.486 60.464H183.534ZM184.95 49.136V47.6H186.726V47.84C186.726 47.84 186.678 47.84 186.582 47.84C186.486 47.84 186.438 47.84 186.438 47.84C186.054 47.84 185.718 47.968 185.43 48.224C185.158 48.464 185.022 48.768 185.022 49.136H184.95ZM183.534 49.136H183.486C183.47 48.768 183.326 48.464 183.054 48.224C182.782 47.968 182.446 47.84 182.046 47.84C182.046 47.84 181.998 47.84 181.902 47.84C181.806 47.84 181.758 47.84 181.758 47.84V47.6H183.534V49.136Z" fill="black"/>
<g clip-path="url(#clip0_1505_2664)">
<path d="M21 73.3495L80.9992 73.6504" stroke="black"/>
<path d="M89.9828 71.3C90.4448 71.3 90.8438 71.384 91.1798 71.552C91.5158 71.72 91.7748 71.9627 91.9568 72.28C92.1388 72.5927 92.2298 72.966 92.2298 73.4C92.2298 73.834 92.1388 74.2073 91.9568 74.52C91.7748 74.8327 91.5158 75.0753 91.1798 75.248C90.8438 75.416 90.4448 75.5 89.9828 75.5H88.4918L88.4778 75.29C88.8044 75.29 89.0774 75.29 89.2968 75.29C89.5208 75.29 89.6911 75.29 89.8078 75.29C89.9244 75.29 89.9828 75.29 89.9828 75.29C90.5241 75.29 90.9488 75.122 91.2568 74.786C91.5694 74.4453 91.7258 73.9833 91.7258 73.4C91.7258 72.8167 91.5694 72.357 91.2568 72.021C90.9488 71.6803 90.5241 71.51 89.9828 71.51C89.9828 71.51 89.9221 71.51 89.8008 71.51C89.6794 71.51 89.5021 71.51 89.2688 71.51C89.0354 71.51 88.7484 71.51 88.4078 71.51V71.3H89.9828ZM88.5898 71.3V75.5H88.1348V71.3H88.5898ZM88.1488 75.045V75.5H87.6448V75.43C87.6448 75.43 87.6588 75.43 87.6868 75.43C87.7194 75.43 87.7358 75.43 87.7358 75.43C87.8478 75.43 87.9411 75.3927 88.0158 75.318C88.0904 75.2387 88.1301 75.1477 88.1348 75.045H88.1488ZM88.1488 71.755H88.1348C88.1301 71.643 88.0881 71.552 88.0088 71.482C87.9341 71.4073 87.8408 71.37 87.7288 71.37C87.7288 71.37 87.7148 71.37 87.6868 71.37C87.6588 71.37 87.6448 71.37 87.6448 71.37V71.3H88.1488V71.755ZM93.8126 71.3V75.5H93.3646V71.3H93.8126ZM95.6956 75.283L95.6816 75.5H93.7986V75.283H95.6956ZM95.3666 73.295V73.505H93.7986V73.295H95.3666ZM95.6886 71.3V71.517H93.7986V71.3H95.6886ZM96.0876 74.499L95.7026 75.5H94.6386L94.8766 75.283C95.1099 75.283 95.2966 75.2503 95.4366 75.185C95.5813 75.115 95.6979 75.0217 95.7866 74.905C95.8753 74.7837 95.9523 74.6483 96.0176 74.499H96.0876ZM95.3666 73.491V73.89H95.2896V73.799C95.2896 73.7197 95.2663 73.652 95.2196 73.596C95.1729 73.5353 95.1006 73.505 95.0026 73.505V73.491H95.3666ZM95.3666 72.91V73.309H95.0026V73.295C95.1006 73.295 95.1729 73.267 95.2196 73.211C95.2663 73.1503 95.2896 73.0803 95.2896 73.001V72.91H95.3666ZM95.6886 71.496V71.979H95.6116V71.874C95.6116 71.776 95.5789 71.692 95.5136 71.622C95.4529 71.552 95.3689 71.517 95.2616 71.517V71.496H95.6886ZM95.6886 71.188V71.37L94.8906 71.3C95.0353 71.3 95.1893 71.2883 95.3526 71.265C95.5159 71.237 95.6279 71.2113 95.6886 71.188ZM93.3786 75.052L93.4696 75.5H92.8606V75.43C92.8606 75.43 92.8769 75.43 92.9096 75.43C92.9423 75.43 92.9586 75.43 92.9586 75.43C93.0753 75.43 93.1709 75.3927 93.2456 75.318C93.3203 75.2433 93.3599 75.1547 93.3646 75.052H93.3786ZM93.3786 71.741H93.3646C93.3599 71.6337 93.3203 71.545 93.2456 71.475C93.1709 71.405 93.0753 71.37 92.9586 71.37C92.9586 71.37 92.9423 71.37 92.9096 71.37C92.8769 71.37 92.8606 71.37 92.8606 71.37V71.3H93.4696L93.3786 71.741ZM98.5859 75.598L96.6609 71.342H97.2139L98.7049 74.975L98.5859 75.598ZM98.5859 75.598L98.5369 75.115L100.14 71.321H100.581L98.9219 74.877C98.9219 74.877 98.9079 74.905 98.8799 74.961C98.8565 75.017 98.8262 75.087 98.7889 75.171C98.7562 75.2503 98.7259 75.3297 98.6979 75.409C98.6699 75.4883 98.6535 75.5513 98.6489 75.598H98.5859ZM99.9369 71.811C99.9882 71.671 99.9812 71.5637 99.9159 71.489C99.8505 71.4097 99.7759 71.37 99.6919 71.37H99.6429V71.3H100.973V71.37C100.973 71.37 100.964 71.37 100.945 71.37C100.926 71.37 100.917 71.37 100.917 71.37C100.819 71.37 100.719 71.405 100.616 71.475C100.513 71.5403 100.425 71.6523 100.35 71.811H99.9369ZM97.4029 71.811H96.8709C96.8009 71.6523 96.7145 71.5403 96.6119 71.475C96.5092 71.405 96.4112 71.37 96.3179 71.37C96.3179 71.37 96.3085 71.37 96.2899 71.37C96.2712 71.37 96.2619 71.37 96.2619 71.37V71.3H97.6969V71.37H97.6409C97.5615 71.37 97.4892 71.4097 97.4239 71.489C97.3632 71.5637 97.3562 71.671 97.4029 71.811ZM102.275 71.3V75.5H101.827V71.3H102.275ZM104.158 75.283L104.144 75.5H102.261V75.283H104.158ZM103.829 73.295V73.505H102.261V73.295H103.829ZM104.151 71.3V71.517H102.261V71.3H104.151ZM104.55 74.499L104.165 75.5H103.101L103.339 75.283C103.573 75.283 103.759 75.2503 103.899 75.185C104.044 75.115 104.161 75.0217 104.249 74.905C104.338 74.7837 104.415 74.6483 104.48 74.499H104.55ZM103.829 73.491V73.89H103.752V73.799C103.752 73.7197 103.729 73.652 103.682 73.596C103.636 73.5353 103.563 73.505 103.465 73.505V73.491H103.829ZM103.829 72.91V73.309H103.465V73.295C103.563 73.295 103.636 73.267 103.682 73.211C103.729 73.1503 103.752 73.0803 103.752 73.001V72.91H103.829ZM104.151 71.496V71.979H104.074V71.874C104.074 71.776 104.042 71.692 103.976 71.622C103.916 71.552 103.832 71.517 103.724 71.517V71.496H104.151ZM104.151 71.188V71.37L103.353 71.3C103.498 71.3 103.652 71.2883 103.815 71.265C103.979 71.237 104.091 71.2113 104.151 71.188ZM101.841 75.052L101.932 75.5H101.323V75.43C101.323 75.43 101.34 75.43 101.372 75.43C101.405 75.43 101.421 75.43 101.421 75.43C101.538 75.43 101.634 75.3927 101.708 75.318C101.783 75.2433 101.823 75.1547 101.827 75.052H101.841ZM101.841 71.741H101.827C101.823 71.6337 101.783 71.545 101.708 71.475C101.634 71.405 101.538 71.37 101.421 71.37C101.421 71.37 101.405 71.37 101.372 71.37C101.34 71.37 101.323 71.37 101.323 71.37V71.3H101.932L101.841 71.741ZM106.028 71.3V75.5H105.58V71.3H106.028ZM107.911 75.283L107.897 75.5H106.014V75.283H107.911ZM108.303 74.499L107.918 75.5H106.854L107.092 75.283C107.326 75.283 107.512 75.2503 107.652 75.185C107.797 75.115 107.914 75.0217 108.002 74.905C108.091 74.7837 108.168 74.6483 108.233 74.499H108.303ZM105.594 75.052L105.685 75.5H105.076V75.43C105.076 75.43 105.093 75.43 105.125 75.43C105.158 75.43 105.174 75.43 105.174 75.43C105.291 75.43 105.387 75.3927 105.461 75.318C105.536 75.2433 105.576 75.1547 105.58 75.052H105.594ZM106.007 71.748V71.3H106.525V71.37C106.525 71.37 106.511 71.37 106.483 71.37C106.455 71.37 106.441 71.37 106.441 71.37C106.329 71.37 106.231 71.4073 106.147 71.482C106.068 71.552 106.028 71.6407 106.028 71.748H106.007ZM105.594 71.748H105.58C105.576 71.6407 105.534 71.552 105.454 71.482C105.375 71.4073 105.277 71.37 105.16 71.37C105.16 71.37 105.146 71.37 105.118 71.37C105.09 71.37 105.076 71.37 105.076 71.37V71.3H105.594V71.748ZM111.119 71.202C111.446 71.202 111.751 71.2557 112.036 71.363C112.325 71.4657 112.577 71.615 112.792 71.811C113.011 72.007 113.182 72.2403 113.303 72.511C113.424 72.777 113.485 73.0733 113.485 73.4C113.485 73.7267 113.424 74.0253 113.303 74.296C113.182 74.562 113.011 74.793 112.792 74.989C112.577 75.185 112.325 75.3367 112.036 75.444C111.751 75.5467 111.446 75.598 111.119 75.598C110.792 75.598 110.487 75.5467 110.202 75.444C109.917 75.3367 109.665 75.185 109.446 74.989C109.231 74.793 109.063 74.562 108.942 74.296C108.821 74.0253 108.76 73.7267 108.76 73.4C108.76 73.0733 108.821 72.777 108.942 72.511C109.063 72.2403 109.231 72.007 109.446 71.811C109.665 71.615 109.917 71.4657 110.202 71.363C110.487 71.2557 110.792 71.202 111.119 71.202ZM111.119 75.388C111.464 75.388 111.777 75.304 112.057 75.136C112.337 74.968 112.559 74.7347 112.722 74.436C112.885 74.1373 112.967 73.792 112.967 73.4C112.967 73.0033 112.885 72.658 112.722 72.364C112.559 72.0653 112.337 71.832 112.057 71.664C111.777 71.496 111.464 71.412 111.119 71.412C110.778 71.412 110.468 71.496 110.188 71.664C109.908 71.832 109.686 72.0653 109.523 72.364C109.36 72.658 109.278 73.0033 109.278 73.4C109.278 73.792 109.36 74.1373 109.523 74.436C109.686 74.7347 109.908 74.968 110.188 75.136C110.468 75.304 110.778 75.388 111.119 75.388ZM114.975 71.3H115.752C116.078 71.3 116.361 71.349 116.599 71.447C116.837 71.5403 117.021 71.678 117.152 71.86C117.282 72.0373 117.348 72.2497 117.348 72.497C117.348 72.763 117.287 72.9917 117.166 73.183C117.049 73.3697 116.893 73.5143 116.697 73.617C116.501 73.715 116.284 73.764 116.046 73.764C115.808 73.7593 115.57 73.6987 115.332 73.582V73.512C115.332 73.512 115.369 73.519 115.444 73.533C115.523 73.547 115.623 73.554 115.745 73.554C115.866 73.5493 115.994 73.5283 116.13 73.491C116.265 73.449 116.391 73.3743 116.508 73.267C116.629 73.1597 116.725 73.0057 116.795 72.805C116.813 72.7537 116.825 72.693 116.83 72.623C116.839 72.553 116.844 72.4877 116.844 72.427C116.844 72.1423 116.746 71.9183 116.55 71.755C116.354 71.5917 116.083 71.51 115.738 71.51H115.052C115.052 71.51 115.045 71.4937 115.031 71.461C115.021 71.4237 115.01 71.3887 114.996 71.356C114.982 71.3187 114.975 71.3 114.975 71.3ZM115.066 71.3V75.5H114.618V71.3H115.066ZM114.632 75.052L114.723 75.5H114.114V75.43C114.114 75.43 114.13 75.43 114.163 75.43C114.195 75.43 114.212 75.43 114.212 75.43C114.324 75.43 114.417 75.3927 114.492 75.318C114.571 75.2433 114.613 75.1547 114.618 75.052H114.632ZM114.632 71.741H114.618C114.613 71.6337 114.571 71.545 114.492 71.475C114.417 71.405 114.324 71.37 114.212 71.37C114.212 71.37 114.195 71.37 114.163 71.37C114.13 71.37 114.114 71.37 114.114 71.37V71.3H114.723L114.632 71.741ZM115.045 75.052H115.059C115.063 75.1547 115.103 75.2433 115.178 75.318C115.257 75.3927 115.353 75.43 115.465 75.43C115.469 75.43 115.486 75.43 115.514 75.43C115.546 75.43 115.563 75.43 115.563 75.43V75.5H114.954L115.045 75.052ZM118.935 71.3V75.5H118.487V71.3H118.935ZM120.818 75.283L120.804 75.5H118.921V75.283H120.818ZM120.489 73.295V73.505H118.921V73.295H120.489ZM120.811 71.3V71.517H118.921V71.3H120.811ZM121.21 74.499L120.825 75.5H119.761L119.999 75.283C120.232 75.283 120.419 75.2503 120.559 75.185C120.703 75.115 120.82 75.0217 120.909 74.905C120.997 74.7837 121.074 74.6483 121.14 74.499H121.21ZM120.489 73.491V73.89H120.412V73.799C120.412 73.7197 120.388 73.652 120.342 73.596C120.295 73.5353 120.223 73.505 120.125 73.505V73.491H120.489ZM120.489 72.91V73.309H120.125V73.295C120.223 73.295 120.295 73.267 120.342 73.211C120.388 73.1503 120.412 73.0803 120.412 73.001V72.91H120.489ZM120.811 71.496V71.979H120.734V71.874C120.734 71.776 120.701 71.692 120.636 71.622C120.575 71.552 120.491 71.517 120.384 71.517V71.496H120.811ZM120.811 71.188V71.37L120.013 71.3C120.157 71.3 120.311 71.2883 120.475 71.265C120.638 71.237 120.75 71.2113 120.811 71.188ZM118.501 75.052L118.592 75.5H117.983V75.43C117.983 75.43 117.999 75.43 118.032 75.43C118.064 75.43 118.081 75.43 118.081 75.43C118.197 75.43 118.293 75.3927 118.368 75.318C118.442 75.2433 118.482 75.1547 118.487 75.052H118.501ZM118.501 71.741H118.487C118.482 71.6337 118.442 71.545 118.368 71.475C118.293 71.405 118.197 71.37 118.081 71.37C118.081 71.37 118.064 71.37 118.032 71.37C117.999 71.37 117.983 71.37 117.983 71.37V71.3H118.592L118.501 71.741ZM122.59 71.3H123.493C123.712 71.3 123.908 71.3257 124.081 71.377C124.258 71.4283 124.407 71.503 124.529 71.601C124.655 71.699 124.75 71.818 124.816 71.958C124.881 72.098 124.914 72.2567 124.914 72.434C124.914 72.63 124.867 72.812 124.774 72.98C124.68 73.148 124.55 73.2857 124.382 73.393C124.218 73.5003 124.032 73.5657 123.822 73.589C123.901 73.6217 123.992 73.694 124.095 73.806C124.202 73.918 124.293 74.0277 124.368 74.135C124.368 74.135 124.398 74.177 124.459 74.261C124.519 74.3403 124.596 74.4407 124.69 74.562C124.788 74.6787 124.883 74.7907 124.977 74.898C125.075 75.0053 125.163 75.0987 125.243 75.178C125.327 75.2573 125.415 75.3203 125.509 75.367C125.607 75.409 125.719 75.43 125.845 75.43V75.5H125.628C125.371 75.5 125.159 75.4673 124.991 75.402C124.827 75.3367 124.694 75.2573 124.592 75.164C124.489 75.066 124.4 74.9727 124.326 74.884C124.307 74.8607 124.263 74.8023 124.193 74.709C124.127 74.611 124.055 74.506 123.976 74.394C123.896 74.282 123.824 74.1817 123.759 74.093C123.693 73.9997 123.654 73.9437 123.64 73.925C123.546 73.8037 123.439 73.6963 123.318 73.603C123.196 73.505 123.068 73.456 122.933 73.456V73.386C122.933 73.386 122.97 73.3883 123.045 73.393C123.119 73.393 123.215 73.3907 123.332 73.386C123.462 73.3813 123.593 73.372 123.724 73.358C123.854 73.3393 123.976 73.288 124.088 73.204C124.204 73.12 124.295 72.98 124.361 72.784C124.379 72.7327 124.393 72.672 124.403 72.602C124.412 72.532 124.414 72.4597 124.41 72.385C124.405 72.2543 124.379 72.1377 124.333 72.035C124.291 71.9323 124.228 71.8437 124.144 71.769C124.064 71.6943 123.969 71.636 123.857 71.594C123.745 71.552 123.619 71.5287 123.479 71.524C123.259 71.5147 123.068 71.5123 122.905 71.517C122.741 71.5217 122.66 71.5217 122.66 71.517C122.66 71.5123 122.653 71.4937 122.639 71.461C122.629 71.4237 122.618 71.3887 122.604 71.356C122.594 71.3187 122.59 71.3 122.59 71.3ZM122.674 71.3V75.5H122.226V71.3H122.674ZM122.247 75.052L122.331 75.5H121.736V75.43C121.736 75.43 121.752 75.43 121.785 75.43C121.817 75.43 121.834 75.43 121.834 75.43C121.946 75.43 122.039 75.3927 122.114 75.318C122.188 75.2433 122.228 75.1547 122.233 75.052H122.247ZM122.247 71.741H122.233C122.228 71.6337 122.188 71.545 122.114 71.475C122.039 71.405 121.946 71.37 121.834 71.37C121.834 71.37 121.817 71.37 121.785 71.37C121.752 71.37 121.736 71.37 121.736 71.37V71.3H122.331L122.247 71.741ZM122.653 75.052H122.674C122.678 75.1547 122.718 75.2433 122.793 75.318C122.867 75.3927 122.961 75.43 123.073 75.43C123.073 75.43 123.087 75.43 123.115 75.43C123.147 75.43 123.164 75.43 123.164 75.43L123.171 75.5H122.569L122.653 75.052Z" fill="black"/>
<line x1="131.999" y1="73.0603" x2="191.999" y2="72.9397" stroke="black"/>
</g>
<defs>
<clipPath id="clip0_1505_2664">
<rect width="171" height="15" fill="white" transform="translate(21 66)"/>
</clipPath>
</defs>
</svg>
