<svg width="213" height="120" viewBox="0 0 213 120" fill="none" xmlns="http://www.w3.org/2000/svg">
<path d="M27.616 44.864L34.72 61.856H32.68L27.136 47.144L27.616 44.864ZM22.456 60.248C22.344 60.568 22.328 60.84 22.408 61.064C22.488 61.288 22.616 61.464 22.792 61.592C22.984 61.704 23.176 61.76 23.368 61.76H23.584V62H18.76V61.76C18.76 61.76 18.8 61.76 18.88 61.76C18.944 61.76 18.976 61.76 18.976 61.76C19.344 61.76 19.72 61.648 20.104 61.424C20.504 61.184 20.832 60.792 21.088 60.248H22.456ZM27.616 44.864L27.832 46.544L21.808 61.928H20.368L26.512 47.336C26.512 47.336 26.552 47.24 26.632 47.048C26.728 46.84 26.832 46.592 26.944 46.304C27.072 46.016 27.176 45.736 27.256 45.464C27.352 45.192 27.4 44.992 27.4 44.864H27.616ZM31 55.448V56.168H23.488V55.448H31ZM32.08 60.248H34.048C34.288 60.792 34.608 61.184 35.008 61.424C35.408 61.648 35.792 61.76 36.16 61.76C36.16 61.76 36.192 61.76 36.256 61.76C36.32 61.76 36.352 61.76 36.352 61.76V62H30.952V61.76H31.168C31.472 61.76 31.744 61.632 31.984 61.376C32.224 61.104 32.256 60.728 32.08 60.248ZM38.6779 47.24L51.9739 59.768L52.2139 62.336L38.9179 49.736L38.6779 47.24ZM38.7259 60.512V62H36.9259V61.76C36.9259 61.76 36.9899 61.76 37.1179 61.76C37.2619 61.76 37.3339 61.76 37.3339 61.76C37.7019 61.76 38.0139 61.64 38.2699 61.4C38.5259 61.16 38.6539 60.864 38.6539 60.512H38.7259ZM39.7339 60.512C39.7339 60.864 39.8619 61.16 40.1179 61.4C40.3899 61.64 40.7019 61.76 41.0539 61.76C41.0539 61.76 41.1179 61.76 41.2459 61.76C41.3899 61.76 41.4619 61.76 41.4619 61.76V62H39.6619V60.512H39.7339ZM38.6779 47.24L39.7099 48.584L39.7339 62H38.6539V50.24C38.6539 49.424 38.6139 48.72 38.5339 48.128C38.4699 47.536 38.4379 47.24 38.4379 47.24H38.6779ZM52.2139 47.6V59.264C52.2139 59.776 52.2299 60.272 52.2619 60.752C52.2939 61.216 52.3259 61.6 52.3579 61.904C52.4059 62.192 52.4299 62.336 52.4299 62.336H52.2139L51.1579 61.064V47.6H52.2139ZM52.1419 49.088V47.6H53.9419V47.84C53.9419 47.84 53.8699 47.84 53.7259 47.84C53.5979 47.84 53.5339 47.84 53.5339 47.84C53.1819 47.84 52.8699 47.96 52.5979 48.2C52.3419 48.44 52.2139 48.736 52.2139 49.088H52.1419ZM51.1579 49.088C51.1419 48.736 51.0059 48.44 50.7499 48.2C50.4939 47.96 50.1819 47.84 49.8139 47.84C49.8139 47.84 49.7419 47.84 49.5979 47.84C49.4699 47.84 49.4059 47.84 49.4059 47.84V47.6H51.2059V49.088H51.1579ZM64.1251 47.6C65.7091 47.6 67.0771 47.888 68.2291 48.464C69.3811 49.04 70.2691 49.872 70.8931 50.96C71.5171 52.032 71.8291 53.312 71.8291 54.8C71.8291 56.288 71.5171 57.568 70.8931 58.64C70.2691 59.712 69.3811 60.544 68.2291 61.136C67.0771 61.712 65.7091 62 64.1251 62H59.0131L58.9651 61.28C60.0851 61.28 61.0211 61.28 61.7731 61.28C62.5411 61.28 63.1251 61.28 63.5251 61.28C63.9251 61.28 64.1251 61.28 64.1251 61.28C65.9811 61.28 67.4371 60.704 68.4931 59.552C69.5651 58.384 70.1011 56.8 70.1011 54.8C70.1011 52.8 69.5651 51.224 68.4931 50.072C67.4371 48.904 65.9811 48.32 64.1251 48.32C64.1251 48.32 63.9171 48.32 63.5011 48.32C63.0851 48.32 62.4771 48.32 61.6771 48.32C60.8771 48.32 59.8931 48.32 58.7251 48.32V47.6H64.1251ZM59.3491 47.6V62H57.7891V47.6H59.3491ZM57.8371 60.44V62H56.1091V61.76C56.1091 61.76 56.1571 61.76 56.2531 61.76C56.3651 61.76 56.4211 61.76 56.4211 61.76C56.8051 61.76 57.1251 61.632 57.3811 61.376C57.6371 61.104 57.7731 60.792 57.7891 60.44H57.8371ZM57.8371 49.16H57.7891C57.7731 48.776 57.6291 48.464 57.3571 48.224C57.1011 47.968 56.7811 47.84 56.3971 47.84C56.3971 47.84 56.3491 47.84 56.2531 47.84C56.1571 47.84 56.1091 47.84 56.1091 47.84V47.6H57.8371V49.16ZM76.9199 47.6H80.0159C80.7679 47.6 81.4399 47.688 82.0319 47.864C82.6399 48.04 83.1519 48.296 83.5679 48.632C83.9999 48.968 84.3279 49.376 84.5519 49.856C84.7759 50.336 84.8879 50.88 84.8879 51.488C84.8879 52.16 84.7279 52.784 84.4079 53.36C84.0879 53.936 83.6399 54.408 83.0639 54.776C82.5039 55.144 81.8639 55.368 81.1439 55.448C81.4159 55.56 81.7279 55.808 82.0799 56.192C82.4479 56.576 82.7599 56.952 83.0159 57.32C83.0159 57.32 83.1199 57.464 83.3279 57.752C83.5359 58.024 83.7999 58.368 84.1199 58.784C84.4559 59.184 84.7839 59.568 85.1039 59.936C85.4399 60.304 85.7439 60.624 86.0159 60.896C86.3039 61.168 86.6079 61.384 86.9279 61.544C87.2639 61.688 87.6479 61.76 88.0799 61.76V62H87.3359C86.4559 62 85.7279 61.888 85.1519 61.664C84.5919 61.44 84.1359 61.168 83.7839 60.848C83.4319 60.512 83.1279 60.192 82.8719 59.888C82.8079 59.808 82.6559 59.608 82.4159 59.288C82.1919 58.952 81.9439 58.592 81.6719 58.208C81.3999 57.824 81.1519 57.48 80.9279 57.176C80.7039 56.856 80.5679 56.664 80.5199 56.6C80.1999 56.184 79.8319 55.816 79.4159 55.496C78.9999 55.16 78.5599 54.992 78.0959 54.992V54.752C78.0959 54.752 78.2239 54.76 78.4799 54.776C78.7359 54.776 79.0639 54.768 79.4639 54.752C79.9119 54.736 80.3599 54.704 80.8079 54.656C81.2559 54.592 81.6719 54.416 82.0559 54.128C82.4559 53.84 82.7679 53.36 82.9919 52.688C83.0559 52.512 83.1039 52.304 83.1359 52.064C83.1679 51.824 83.1759 51.576 83.1599 51.32C83.1439 50.872 83.0559 50.472 82.8959 50.12C82.7519 49.768 82.5359 49.464 82.2479 49.208C81.9759 48.952 81.6479 48.752 81.2639 48.608C80.8799 48.464 80.4479 48.384 79.9679 48.368C79.2159 48.336 78.5599 48.328 77.9999 48.344C77.4399 48.36 77.1599 48.36 77.1599 48.344C77.1599 48.328 77.1359 48.264 77.0879 48.152C77.0559 48.024 77.0159 47.904 76.9679 47.792C76.9359 47.664 76.9199 47.6 76.9199 47.6ZM77.2079 47.6V62H75.6719V47.6H77.2079ZM75.7439 60.464L76.0319 62H73.9919V61.76C73.9919 61.76 74.0479 61.76 74.1599 61.76C74.2719 61.76 74.3279 61.76 74.3279 61.76C74.7119 61.76 75.0319 61.632 75.2879 61.376C75.5439 61.12 75.6799 60.816 75.6959 60.464H75.7439ZM75.7439 49.112H75.6959C75.6799 48.744 75.5439 48.44 75.2879 48.2C75.0319 47.96 74.7119 47.84 74.3279 47.84C74.3279 47.84 74.2719 47.84 74.1599 47.84C74.0479 47.84 73.9919 47.84 73.9919 47.84V47.6H76.0319L75.7439 49.112ZM77.1359 60.464H77.2079C77.2239 60.816 77.3599 61.12 77.6159 61.376C77.8719 61.632 78.1919 61.76 78.5759 61.76C78.5759 61.76 78.6239 61.76 78.7199 61.76C78.8319 61.76 78.8879 61.76 78.8879 61.76L78.9119 62H76.8479L77.1359 60.464ZM92.3028 47.6V62H90.7668V47.6H92.3028ZM98.7588 61.256L98.7108 62H92.2548V61.256H98.7588ZM97.6308 54.44V55.16H92.2548V54.44H97.6308ZM98.7348 47.6V48.344H92.2548V47.6H98.7348ZM100.103 58.568L98.7828 62H95.1348L95.9508 61.256C96.7508 61.256 97.3908 61.144 97.8708 60.92C98.3668 60.68 98.7668 60.36 99.0708 59.96C99.3748 59.544 99.6388 59.08 99.8628 58.568H100.103ZM97.6308 55.112V56.48H97.3668V56.168C97.3668 55.896 97.2868 55.664 97.1268 55.472C96.9668 55.264 96.7188 55.16 96.3828 55.16V55.112H97.6308ZM97.6308 53.12V54.488H96.3828V54.44C96.7188 54.44 96.9668 54.344 97.1268 54.152C97.2868 53.944 97.3668 53.704 97.3668 53.432V53.12H97.6308ZM98.7348 48.272V49.928H98.4708V49.568C98.4708 49.232 98.3588 48.944 98.1348 48.704C97.9268 48.464 97.6388 48.344 97.2708 48.344V48.272H98.7348ZM98.7348 47.216V47.84L95.9988 47.6C96.4948 47.6 97.0228 47.56 97.5828 47.48C98.1428 47.384 98.5268 47.296 98.7348 47.216ZM90.8148 60.464L91.1268 62H89.0388V61.76C89.0388 61.76 89.0948 61.76 89.2068 61.76C89.3188 61.76 89.3748 61.76 89.3748 61.76C89.7748 61.76 90.1028 61.632 90.3588 61.376C90.6148 61.12 90.7508 60.816 90.7668 60.464H90.8148ZM90.8148 49.112H90.7668C90.7508 48.744 90.6148 48.44 90.3588 48.2C90.1028 47.96 89.7748 47.84 89.3748 47.84C89.3748 47.84 89.3188 47.84 89.2068 47.84C89.0948 47.84 89.0388 47.84 89.0388 47.84V47.6H91.1268L90.8148 49.112ZM102.188 47.744H104.108L107.996 59.576L107.78 62.288L102.188 47.744ZM112.052 47.216L112.244 49.16L108.524 59.624C108.524 59.624 108.484 59.768 108.404 60.056C108.324 60.328 108.236 60.672 108.14 61.088C108.06 61.488 108.012 61.888 107.996 62.288H107.78L107.324 60.152L111.812 47.216H112.052ZM112.052 47.24L116.66 58.976L116.108 62.288L111.236 49.832L112.052 47.24ZM120.884 47.744L116.9 59.624C116.9 59.624 116.852 59.768 116.756 60.056C116.676 60.344 116.588 60.696 116.492 61.112C116.412 61.512 116.364 61.904 116.348 62.288H116.108L115.82 59.912L119.516 47.744H120.884ZM119.036 49.28C119.212 48.768 119.196 48.4 118.988 48.176C118.796 47.952 118.572 47.84 118.316 47.84H118.124V47.6H122.516V47.84C122.516 47.84 122.484 47.84 122.42 47.84C122.372 47.84 122.348 47.84 122.348 47.84C121.852 47.84 121.436 47.976 121.1 48.248C120.764 48.52 120.524 48.864 120.38 49.28H119.036ZM104.612 49.256L102.788 49.28C102.628 48.864 102.388 48.52 102.068 48.248C101.748 47.976 101.332 47.84 100.82 47.84C100.82 47.84 100.788 47.84 100.724 47.84C100.66 47.84 100.628 47.84 100.628 47.84V47.6H105.572V47.84H105.38C105.124 47.84 104.892 47.952 104.684 48.176C104.476 48.384 104.452 48.744 104.612 49.256ZM135.342 52.76L142.158 60.776C142.494 61.096 142.83 61.336 143.166 61.496C143.518 61.656 143.942 61.744 144.438 61.76V62H143.406C143.246 62 143.014 61.992 142.71 61.976C142.422 61.944 142.102 61.888 141.75 61.808C141.414 61.712 141.07 61.576 140.718 61.4C140.382 61.208 140.078 60.952 139.806 60.632C139.806 60.632 139.662 60.464 139.374 60.128C139.102 59.792 138.742 59.36 138.294 58.832C137.862 58.304 137.398 57.744 136.902 57.152C136.422 56.544 135.958 55.976 135.51 55.448C135.078 54.92 134.718 54.488 134.43 54.152C134.158 53.816 134.022 53.648 134.022 53.648L135.342 52.76ZM142.278 45.368L135.102 53.648H134.022L140.622 45.368H142.278ZM143.934 45.2V45.416H143.838C143.31 45.416 142.814 45.52 142.35 45.728C141.902 45.936 141.518 46.224 141.198 46.592L139.686 46.544C139.894 46.272 139.926 46.016 139.782 45.776C139.654 45.536 139.43 45.416 139.11 45.416H138.87V45.2H143.838H143.934ZM133.254 45.2V62H131.694V45.2H133.254ZM131.766 60.248V62H129.846V61.76C129.846 61.76 129.894 61.76 129.99 61.76C130.102 61.76 130.158 61.76 130.158 61.76C130.574 61.76 130.926 61.616 131.214 61.328C131.518 61.024 131.678 60.664 131.694 60.248H131.766ZM131.766 46.952H131.694C131.678 46.536 131.518 46.184 131.214 45.896C130.926 45.592 130.574 45.44 130.158 45.44C130.158 45.44 130.102 45.44 129.99 45.44C129.894 45.44 129.846 45.44 129.846 45.44V45.2H131.766V46.952ZM133.182 60.248H133.254C133.27 60.664 133.422 61.024 133.71 61.328C134.014 61.616 134.374 61.76 134.79 61.76C134.79 61.76 134.838 61.76 134.934 61.76C135.03 61.76 135.086 61.76 135.102 61.76V62H133.182V60.248ZM133.182 46.952V45.2H135.102V45.44C135.086 45.44 135.03 45.44 134.934 45.44C134.838 45.44 134.79 45.44 134.79 45.44C134.374 45.44 134.014 45.592 133.71 45.896C133.422 46.184 133.27 46.536 133.254 46.952H133.182ZM152.244 47.264L158.844 61.856H156.948L151.836 49.4L152.244 47.264ZM147.612 60.248C147.436 60.728 147.46 61.104 147.684 61.376C147.908 61.632 148.164 61.76 148.452 61.76H148.644V62H144.06V61.76C144.06 61.76 144.092 61.76 144.156 61.76C144.22 61.76 144.252 61.76 144.252 61.76C144.588 61.76 144.932 61.648 145.284 61.424C145.636 61.184 145.94 60.792 146.196 60.248H147.612ZM152.244 47.264L152.412 48.92L146.916 61.928H145.404L151.092 49.736C151.092 49.736 151.132 49.64 151.212 49.448C151.308 49.256 151.412 49.024 151.524 48.752C151.652 48.464 151.764 48.184 151.86 47.912C151.956 47.64 152.012 47.424 152.028 47.264H152.244ZM155.076 56.408V57.128H148.716V56.408H155.076ZM156.3 60.248H158.124C158.364 60.792 158.66 61.184 159.012 61.424C159.364 61.648 159.7 61.76 160.02 61.76C160.02 61.76 160.052 61.76 160.116 61.76C160.18 61.76 160.212 61.76 160.212 61.76V62H155.292V61.76H155.484C155.756 61.76 156.004 61.632 156.228 61.376C156.452 61.104 156.476 60.728 156.3 60.248ZM164.678 47.6V62H163.142V47.6H164.678ZM171.134 61.256L171.086 62H164.63V61.256H171.134ZM172.478 58.568L171.158 62H167.51L168.326 61.256C169.126 61.256 169.766 61.144 170.246 60.92C170.742 60.68 171.142 60.36 171.446 59.96C171.75 59.544 172.014 59.08 172.238 58.568H172.478ZM163.19 60.464L163.502 62H161.414V61.76C161.414 61.76 161.47 61.76 161.582 61.76C161.694 61.76 161.75 61.76 161.75 61.76C162.15 61.76 162.478 61.632 162.734 61.376C162.99 61.12 163.126 60.816 163.142 60.464H163.19ZM164.606 49.136V47.6H166.382V47.84C166.382 47.84 166.334 47.84 166.238 47.84C166.142 47.84 166.094 47.84 166.094 47.84C165.71 47.84 165.374 47.968 165.086 48.224C164.814 48.464 164.678 48.768 164.678 49.136H164.606ZM163.19 49.136H163.142C163.126 48.768 162.982 48.464 162.71 48.224C162.438 47.968 162.102 47.84 161.702 47.84C161.702 47.84 161.654 47.84 161.558 47.84C161.462 47.84 161.414 47.84 161.414 47.84V47.6H163.19V49.136ZM177.175 47.6V62H175.663V47.6H177.175ZM175.735 60.464V62H173.695V61.76C173.695 61.76 173.751 61.76 173.863 61.76C173.975 61.76 174.031 61.76 174.031 61.76C174.479 61.76 174.855 61.632 175.159 61.376C175.479 61.12 175.647 60.816 175.663 60.464H175.735ZM177.103 60.464H177.175C177.191 60.816 177.351 61.12 177.655 61.376C177.975 61.632 178.359 61.76 178.807 61.76C178.807 61.76 178.855 61.76 178.951 61.76C179.063 61.76 179.119 61.76 179.119 61.76L179.143 62H177.103V60.464ZM177.103 49.136V47.6H179.143L179.119 47.84C179.119 47.84 179.063 47.84 178.951 47.84C178.855 47.84 178.807 47.84 178.807 47.84C178.359 47.84 177.975 47.968 177.655 48.224C177.351 48.464 177.191 48.768 177.175 49.136H177.103ZM175.735 49.136H175.663C175.647 48.768 175.479 48.464 175.159 48.224C174.855 47.968 174.479 47.84 174.031 47.84C174.015 47.84 173.951 47.84 173.839 47.84C173.743 47.84 173.695 47.84 173.695 47.84V47.6H175.735V49.136ZM185.022 47.6V62H183.486V47.6H185.022ZM191.478 61.256L191.43 62H184.974V61.256H191.478ZM192.822 58.568L191.502 62H187.854L188.67 61.256C189.47 61.256 190.11 61.144 190.59 60.92C191.086 60.68 191.486 60.36 191.79 59.96C192.094 59.544 192.358 59.08 192.582 58.568H192.822ZM183.534 60.464L183.846 62H181.758V61.76C181.758 61.76 181.814 61.76 181.926 61.76C182.038 61.76 182.094 61.76 182.094 61.76C182.494 61.76 182.822 61.632 183.078 61.376C183.334 61.12 183.47 60.816 183.486 60.464H183.534ZM184.95 49.136V47.6H186.726V47.84C186.726 47.84 186.678 47.84 186.582 47.84C186.486 47.84 186.438 47.84 186.438 47.84C186.054 47.84 185.718 47.968 185.43 48.224C185.158 48.464 185.022 48.768 185.022 49.136H184.95ZM183.534 49.136H183.486C183.47 48.768 183.326 48.464 183.054 48.224C182.782 47.968 182.446 47.84 182.046 47.84C182.046 47.84 181.998 47.84 181.902 47.84C181.806 47.84 181.758 47.84 181.758 47.84V47.6H183.534V49.136Z" fill="white"/>
<g clip-path="url(#clip0_1505_2672)">
<path d="M21 73.3495L80.9992 73.6504" stroke="white"/>
<path d="M87.6232 71.7C88.1512 71.7 88.6072 71.796 88.9912 71.988C89.3752 72.18 89.6712 72.4573 89.8792 72.82C90.0872 73.1773 90.1912 73.604 90.1912 74.1C90.1912 74.596 90.0872 75.0227 89.8792 75.38C89.6712 75.7373 89.3752 76.0147 88.9912 76.212C88.6072 76.404 88.1512 76.5 87.6232 76.5H85.9192L85.9032 76.26C86.2766 76.26 86.5886 76.26 86.8392 76.26C87.0952 76.26 87.2899 76.26 87.4232 76.26C87.5566 76.26 87.6232 76.26 87.6232 76.26C88.2419 76.26 88.7272 76.068 89.0792 75.684C89.4366 75.2947 89.6152 74.7667 89.6152 74.1C89.6152 73.4333 89.4366 72.908 89.0792 72.524C88.7272 72.1347 88.2419 71.94 87.6232 71.94C87.6232 71.94 87.5539 71.94 87.4152 71.94C87.2766 71.94 87.0739 71.94 86.8072 71.94C86.5406 71.94 86.2126 71.94 85.8232 71.94V71.7H87.6232ZM86.0312 71.7V76.5H85.5112V71.7H86.0312ZM85.5272 75.98V76.5H84.9512V76.42C84.9512 76.42 84.9672 76.42 84.9992 76.42C85.0366 76.42 85.0552 76.42 85.0552 76.42C85.1832 76.42 85.2899 76.3773 85.3752 76.292C85.4606 76.2013 85.5059 76.0973 85.5112 75.98H85.5272ZM85.5272 72.22H85.5112C85.5059 72.092 85.4579 71.988 85.3672 71.908C85.2819 71.8227 85.1752 71.78 85.0472 71.78C85.0472 71.78 85.0312 71.78 84.9992 71.78C84.9672 71.78 84.9512 71.78 84.9512 71.78V71.7H85.5272V72.22ZM92.0002 71.7V76.5H91.4882V71.7H92.0002ZM94.1522 76.252L94.1362 76.5H91.9842V76.252H94.1522ZM93.7762 73.98V74.22H91.9842V73.98H93.7762ZM94.1442 71.7V71.948H91.9842V71.7H94.1442ZM94.6002 75.356L94.1602 76.5H92.9442L93.2162 76.252C93.4828 76.252 93.6962 76.2147 93.8562 76.14C94.0215 76.06 94.1548 75.9533 94.2562 75.82C94.3575 75.6813 94.4455 75.5267 94.5202 75.356H94.6002ZM93.7762 74.204V74.66H93.6882V74.556C93.6882 74.4653 93.6615 74.388 93.6082 74.324C93.5548 74.2547 93.4722 74.22 93.3602 74.22V74.204H93.7762ZM93.7762 73.54V73.996H93.3602V73.98C93.4722 73.98 93.5548 73.948 93.6082 73.884C93.6615 73.8147 93.6882 73.7347 93.6882 73.644V73.54H93.7762ZM94.1442 71.924V72.476H94.0562V72.356C94.0562 72.244 94.0188 72.148 93.9442 72.068C93.8748 71.988 93.7788 71.948 93.6562 71.948V71.924H94.1442ZM94.1442 71.572V71.78L93.2322 71.7C93.3975 71.7 93.5735 71.6867 93.7602 71.66C93.9468 71.628 94.0748 71.5987 94.1442 71.572ZM91.5042 75.988L91.6082 76.5H90.9122V76.42C90.9122 76.42 90.9308 76.42 90.9682 76.42C91.0055 76.42 91.0242 76.42 91.0242 76.42C91.1575 76.42 91.2668 76.3773 91.3522 76.292C91.4375 76.2067 91.4828 76.1053 91.4882 75.988H91.5042ZM91.5042 72.204H91.4882C91.4828 72.0813 91.4375 71.98 91.3522 71.9C91.2668 71.82 91.1575 71.78 91.0242 71.78C91.0242 71.78 91.0055 71.78 90.9682 71.78C90.9308 71.78 90.9122 71.78 90.9122 71.78V71.7H91.6082L91.5042 72.204ZM97.4554 76.612L95.2554 71.748H95.8874L97.5914 75.9L97.4554 76.612ZM97.4554 76.612L97.3994 76.06L99.2314 71.724H99.7354L97.8394 75.788C97.8394 75.788 97.8234 75.82 97.7914 75.884C97.7647 75.948 97.73 76.028 97.6874 76.124C97.65 76.2147 97.6154 76.3053 97.5834 76.396C97.5514 76.4867 97.5327 76.5587 97.5274 76.612H97.4554ZM98.9994 72.284C99.058 72.124 99.05 72.0013 98.9754 71.916C98.9007 71.8253 98.8154 71.78 98.7194 71.78H98.6634V71.7H100.183V71.78C100.183 71.78 100.173 71.78 100.151 71.78C100.13 71.78 100.119 71.78 100.119 71.78C100.007 71.78 99.8927 71.82 99.7754 71.9C99.658 71.9747 99.5567 72.1027 99.4714 72.284H98.9994ZM96.1034 72.284H95.4954C95.4154 72.1027 95.3167 71.9747 95.1994 71.9C95.082 71.82 94.97 71.78 94.8634 71.78C94.8634 71.78 94.8527 71.78 94.8314 71.78C94.81 71.78 94.7994 71.78 94.7994 71.78V71.7H96.4394V71.78H96.3754C96.2847 71.78 96.202 71.8253 96.1274 71.916C96.058 72.0013 96.05 72.124 96.1034 72.284ZM101.672 71.7V76.5H101.16V71.7H101.672ZM103.824 76.252L103.808 76.5H101.656V76.252H103.824ZM103.448 73.98V74.22H101.656V73.98H103.448ZM103.816 71.7V71.948H101.656V71.7H103.816ZM104.272 75.356L103.832 76.5H102.616L102.888 76.252C103.155 76.252 103.368 76.2147 103.528 76.14C103.693 76.06 103.827 75.9533 103.928 75.82C104.029 75.6813 104.117 75.5267 104.192 75.356H104.272ZM103.448 74.204V74.66H103.36V74.556C103.36 74.4653 103.333 74.388 103.28 74.324C103.227 74.2547 103.144 74.22 103.032 74.22V74.204H103.448ZM103.448 73.54V73.996H103.032V73.98C103.144 73.98 103.227 73.948 103.28 73.884C103.333 73.8147 103.36 73.7347 103.36 73.644V73.54H103.448ZM103.816 71.924V72.476H103.728V72.356C103.728 72.244 103.691 72.148 103.616 72.068C103.547 71.988 103.451 71.948 103.328 71.948V71.924H103.816ZM103.816 71.572V71.78L102.904 71.7C103.069 71.7 103.245 71.6867 103.432 71.66C103.619 71.628 103.747 71.5987 103.816 71.572ZM101.176 75.988L101.28 76.5H100.584V76.42C100.584 76.42 100.603 76.42 100.64 76.42C100.677 76.42 100.696 76.42 100.696 76.42C100.829 76.42 100.939 76.3773 101.024 76.292C101.109 76.2067 101.155 76.1053 101.16 75.988H101.176ZM101.176 72.204H101.16C101.155 72.0813 101.109 71.98 101.024 71.9C100.939 71.82 100.829 71.78 100.696 71.78C100.696 71.78 100.677 71.78 100.64 71.78C100.603 71.78 100.584 71.78 100.584 71.78V71.7H101.28L101.176 72.204ZM105.961 71.7V76.5H105.449V71.7H105.961ZM108.113 76.252L108.097 76.5H105.945V76.252H108.113ZM108.561 75.356L108.121 76.5H106.905L107.177 76.252C107.444 76.252 107.657 76.2147 107.817 76.14C107.982 76.06 108.116 75.9533 108.217 75.82C108.318 75.6813 108.406 75.5267 108.481 75.356H108.561ZM105.465 75.988L105.569 76.5H104.873V76.42C104.873 76.42 104.892 76.42 104.929 76.42C104.966 76.42 104.985 76.42 104.985 76.42C105.118 76.42 105.228 76.3773 105.313 76.292C105.398 76.2067 105.444 76.1053 105.449 75.988H105.465ZM105.937 72.212V71.7H106.529V71.78C106.529 71.78 106.513 71.78 106.481 71.78C106.449 71.78 106.433 71.78 106.433 71.78C106.305 71.78 106.193 71.8227 106.097 71.908C106.006 71.988 105.961 72.0893 105.961 72.212H105.937ZM105.465 72.212H105.449C105.444 72.0893 105.396 71.988 105.305 71.908C105.214 71.8227 105.102 71.78 104.969 71.78C104.969 71.78 104.953 71.78 104.921 71.78C104.889 71.78 104.873 71.78 104.873 71.78V71.7H105.465V72.212ZM111.779 71.588C112.152 71.588 112.502 71.6493 112.827 71.772C113.158 71.8893 113.446 72.06 113.691 72.284C113.942 72.508 114.136 72.7747 114.275 73.084C114.414 73.388 114.483 73.7267 114.483 74.1C114.483 74.4733 114.414 74.8147 114.275 75.124C114.136 75.428 113.942 75.692 113.691 75.916C113.446 76.14 113.158 76.3133 112.827 76.436C112.502 76.5533 112.152 76.612 111.779 76.612C111.406 76.612 111.056 76.5533 110.731 76.436C110.406 76.3133 110.118 76.14 109.867 75.916C109.622 75.692 109.43 75.428 109.291 75.124C109.152 74.8147 109.083 74.4733 109.083 74.1C109.083 73.7267 109.152 73.388 109.291 73.084C109.43 72.7747 109.622 72.508 109.867 72.284C110.118 72.06 110.406 71.8893 110.731 71.772C111.056 71.6493 111.406 71.588 111.779 71.588ZM111.779 76.372C112.174 76.372 112.531 76.276 112.851 76.084C113.171 75.892 113.424 75.6253 113.611 75.284C113.798 74.9427 113.891 74.548 113.891 74.1C113.891 73.6467 113.798 73.252 113.611 72.916C113.424 72.5747 113.171 72.308 112.851 72.116C112.531 71.924 112.174 71.828 111.779 71.828C111.39 71.828 111.035 71.924 110.715 72.116C110.395 72.308 110.142 72.5747 109.955 72.916C109.768 73.252 109.675 73.6467 109.675 74.1C109.675 74.548 109.768 74.9427 109.955 75.284C110.142 75.6253 110.395 75.892 110.715 76.084C111.035 76.276 111.39 76.372 111.779 76.372ZM116.185 71.7H117.073C117.447 71.7 117.769 71.756 118.041 71.868C118.313 71.9747 118.524 72.132 118.673 72.34C118.823 72.5427 118.897 72.7853 118.897 73.068C118.897 73.372 118.828 73.6333 118.689 73.852C118.556 74.0653 118.377 74.2307 118.153 74.348C117.929 74.46 117.681 74.516 117.409 74.516C117.137 74.5107 116.865 74.4413 116.593 74.308V74.228C116.593 74.228 116.636 74.236 116.721 74.252C116.812 74.268 116.927 74.276 117.065 74.276C117.204 74.2707 117.351 74.2467 117.505 74.204C117.66 74.156 117.804 74.0707 117.937 73.948C118.076 73.8253 118.185 73.6493 118.265 73.42C118.287 73.3613 118.3 73.292 118.305 73.212C118.316 73.132 118.321 73.0573 118.321 72.988C118.321 72.6627 118.209 72.4067 117.985 72.22C117.761 72.0333 117.452 71.94 117.057 71.94H116.273C116.273 71.94 116.265 71.9213 116.249 71.884C116.239 71.8413 116.225 71.8013 116.209 71.764C116.193 71.7213 116.185 71.7 116.185 71.7ZM116.289 71.7V76.5H115.777V71.7H116.289ZM115.793 75.988L115.897 76.5H115.201V76.42C115.201 76.42 115.22 76.42 115.257 76.42C115.295 76.42 115.313 76.42 115.313 76.42C115.441 76.42 115.548 76.3773 115.633 76.292C115.724 76.2067 115.772 76.1053 115.777 75.988H115.793ZM115.793 72.204H115.777C115.772 72.0813 115.724 71.98 115.633 71.9C115.548 71.82 115.441 71.78 115.313 71.78C115.313 71.78 115.295 71.78 115.257 71.78C115.22 71.78 115.201 71.78 115.201 71.78V71.7H115.897L115.793 72.204ZM116.265 75.988H116.281C116.287 76.1053 116.332 76.2067 116.417 76.292C116.508 76.3773 116.617 76.42 116.745 76.42C116.751 76.42 116.769 76.42 116.801 76.42C116.839 76.42 116.857 76.42 116.857 76.42V76.5H116.161L116.265 75.988ZM120.711 71.7V76.5H120.199V71.7H120.711ZM122.863 76.252L122.847 76.5H120.695V76.252H122.863ZM122.487 73.98V74.22H120.695V73.98H122.487ZM122.855 71.7V71.948H120.695V71.7H122.855ZM123.311 75.356L122.871 76.5H121.655L121.927 76.252C122.194 76.252 122.407 76.2147 122.567 76.14C122.732 76.06 122.866 75.9533 122.967 75.82C123.068 75.6813 123.156 75.5267 123.231 75.356H123.311ZM122.487 74.204V74.66H122.399V74.556C122.399 74.4653 122.372 74.388 122.319 74.324C122.266 74.2547 122.183 74.22 122.071 74.22V74.204H122.487ZM122.487 73.54V73.996H122.071V73.98C122.183 73.98 122.266 73.948 122.319 73.884C122.372 73.8147 122.399 73.7347 122.399 73.644V73.54H122.487ZM122.855 71.924V72.476H122.767V72.356C122.767 72.244 122.73 72.148 122.655 72.068C122.586 71.988 122.49 71.948 122.367 71.948V71.924H122.855ZM122.855 71.572V71.78L121.943 71.7C122.108 71.7 122.284 71.6867 122.471 71.66C122.658 71.628 122.786 71.5987 122.855 71.572ZM120.215 75.988L120.319 76.5H119.623V76.42C119.623 76.42 119.642 76.42 119.679 76.42C119.716 76.42 119.735 76.42 119.735 76.42C119.868 76.42 119.978 76.3773 120.063 76.292C120.148 76.2067 120.194 76.1053 120.199 75.988H120.215ZM120.215 72.204H120.199C120.194 72.0813 120.148 71.98 120.063 71.9C119.978 71.82 119.868 71.78 119.735 71.78C119.735 71.78 119.716 71.78 119.679 71.78C119.642 71.78 119.623 71.78 119.623 71.78V71.7H120.319L120.215 72.204ZM124.888 71.7H125.92C126.171 71.7 126.395 71.7293 126.592 71.788C126.795 71.8467 126.966 71.932 127.104 72.044C127.248 72.156 127.358 72.292 127.432 72.452C127.507 72.612 127.544 72.7933 127.544 72.996C127.544 73.22 127.491 73.428 127.384 73.62C127.278 73.812 127.128 73.9693 126.936 74.092C126.75 74.2147 126.536 74.2893 126.296 74.316C126.387 74.3533 126.491 74.436 126.608 74.564C126.731 74.692 126.835 74.8173 126.92 74.94C126.92 74.94 126.955 74.988 127.024 75.084C127.094 75.1747 127.182 75.2893 127.288 75.428C127.4 75.5613 127.51 75.6893 127.616 75.812C127.728 75.9347 127.83 76.0413 127.92 76.132C128.016 76.2227 128.118 76.2947 128.224 76.348C128.336 76.396 128.464 76.42 128.608 76.42V76.5H128.36C128.067 76.5 127.824 76.4627 127.632 76.388C127.446 76.3133 127.294 76.2227 127.176 76.116C127.059 76.004 126.958 75.8973 126.872 75.796C126.851 75.7693 126.8 75.7027 126.72 75.596C126.646 75.484 126.563 75.364 126.472 75.236C126.382 75.108 126.299 74.9933 126.224 74.892C126.15 74.7853 126.104 74.7213 126.088 74.7C125.982 74.5613 125.859 74.4387 125.72 74.332C125.582 74.22 125.435 74.164 125.28 74.164V74.084C125.28 74.084 125.323 74.0867 125.408 74.092C125.494 74.092 125.603 74.0893 125.736 74.084C125.886 74.0787 126.035 74.068 126.184 74.052C126.334 74.0307 126.472 73.972 126.6 73.876C126.734 73.78 126.838 73.62 126.912 73.396C126.934 73.3373 126.95 73.268 126.96 73.188C126.971 73.108 126.974 73.0253 126.968 72.94C126.963 72.7907 126.934 72.6573 126.88 72.54C126.832 72.4227 126.76 72.3213 126.664 72.236C126.574 72.1507 126.464 72.084 126.336 72.036C126.208 71.988 126.064 71.9613 125.904 71.956C125.654 71.9453 125.435 71.9427 125.248 71.948C125.062 71.9533 124.968 71.9533 124.968 71.948C124.968 71.9427 124.96 71.9213 124.944 71.884C124.934 71.8413 124.92 71.8013 124.904 71.764C124.894 71.7213 124.888 71.7 124.888 71.7ZM124.984 71.7V76.5H124.472V71.7H124.984ZM124.496 75.988L124.592 76.5H123.912V76.42C123.912 76.42 123.931 76.42 123.968 76.42C124.006 76.42 124.024 76.42 124.024 76.42C124.152 76.42 124.259 76.3773 124.344 76.292C124.43 76.2067 124.475 76.1053 124.48 75.988H124.496ZM124.496 72.204H124.48C124.475 72.0813 124.43 71.98 124.344 71.9C124.259 71.82 124.152 71.78 124.024 71.78C124.024 71.78 124.006 71.78 123.968 71.78C123.931 71.78 123.912 71.78 123.912 71.78V71.7H124.592L124.496 72.204ZM124.96 75.988H124.984C124.99 76.1053 125.035 76.2067 125.12 76.292C125.206 76.3773 125.312 76.42 125.44 76.42C125.44 76.42 125.456 76.42 125.488 76.42C125.526 76.42 125.544 76.42 125.544 76.42L125.552 76.5H124.864L124.96 75.988Z" fill="white"/>
<line x1="131.999" y1="73.0603" x2="191.999" y2="72.9397" stroke="white"/>
</g>
<defs>
<clipPath id="clip0_1505_2672">
<rect width="171" height="15" fill="white" transform="translate(21 66)"/>
</clipPath>
</defs>
</svg>
